<?xml version="1.0" encoding="UTF-8"?>
<svg id="Camada_1" xmlns="http://www.w3.org/2000/svg" version="1.1" viewBox="0 0 566.6 170.8">
  <!-- Generator: Adobe Illustrator 29.1.0, SVG Export Plug-In . SVG Version: 2.1.0 Build 142)  -->
  <defs>
    <style>
      .st0 {
        fill: #e9562a;
      }

      .st1 {
        fill: #fff;
      }
    </style>
  </defs>
  <path class="st0" d="M100.9,89.5L76.3,7.5c-1.4-5.5,3.8-8.8,8.3-7.1,6.7,2.5,16.7,5.1,23.3,7.9,7.5,3.1,4.6,7.8,3.7,14.4-3.1,22.3-7.2,44.5-10.6,66.7h0Z"/>
  <path class="st0" d="M97.4,91.4L20.1,43.3c-5-3.4-3.1-9.7,1.6-11.5,7.1-2.7,16.9-7.7,24.2-10.1,8.2-2.7,9.2,3,13.1,8.9,13.2,20,25.5,40.6,38.4,60.8h0Z"/>
  <path class="st0" d="M96.9,94.3L7.3,110.8c-6,.8-8.8-5.1-6.5-9.6,3.4-6.8,7.3-17.1,11.1-23.7,4.2-7.5,8.8-4,15.7-2.2,23.2,5.8,46.2,12.8,69.4,19.1h0Z"/>
  <path class="st0" d="M107.4,101.2l24.4,37.7c1.7,2.4,4.8,1.4,5.6-.9,1.3-3.5,3.6-8.4,4.8-12,1.3-4.1-1.6-4.5-4.5-6.4-10-6.3-20.2-12.2-30.3-18.4Z"/>
  <path class="st0" d="M102.6,102.8l-16.4,60.6c-.9,4.1,3,6.4,6.2,5,4.8-2,12.2-4.1,16.9-6.2,5.4-2.5,3.2-5.8,2.4-10.6-2.7-16.3-6.2-32.5-9.2-48.7h0Z"/>
  <path class="st0" d="M96.2,100.1l-73.1,43.3c-4.7,3.1-3.1,9,1.3,10.8,6.6,2.6,15.7,7.5,22.3,9.9,7.6,2.7,8.6-2.6,12.4-8,12.8-18.4,24.7-37.4,37.1-56Z"/>
  <path class="st0" d="M107.9,91l13.8-22.2c.8-1.5-.4-2.9-1.9-2.8-2.2.2-5.3.2-7.5.5-2.4.3-2,1.9-2.2,3.9-.9,6.8-1.4,13.7-2.2,20.5Z"/>
  <path class="st0" d="M111.4,92.3l29.6-9c1.9-.7,1.9-2.9.5-3.9-2.1-1.5-4.9-4-7-5.4-2.4-1.6-3.3.2-5.1,1.8-6.1,5.4-12,11.1-18,16.6h0Z"/>
  <path class="st0" d="M110.2,95.9l34.8,16.6c2.4,1,4.2-1.1,3.7-3.2-.7-3.2-1.1-7.8-1.9-10.9-.9-3.6-3.2-2.6-6.2-2.7-10.1-.2-20.3.1-30.5.2h0Z"/>
  <path class="st1" d="M281,37.8c-.5-1.2-1.2-2.3-2.1-3.2s-2-1.6-3.2-2.1c-1.2-.5-2.5-.8-4-.8s-2.7.3-3.9.8-2.3,1.2-3.2,2.1-1.6,2-2.1,3.2c-.5,1.2-.8,2.5-.8,3.9s.2,2.8.8,4,1.2,2.2,2.1,3.2,2,1.6,3.2,2.1c1.2.5,2.5.8,3.9.8s2.7-.2,4-.8,2.3-1.2,3.2-2.1,1.6-2,2.1-3.2.8-2.5.8-4-.3-2.7-.8-3.9Z"/>
  <path class="st1" d="M241.9,43.1h-42.9v36.5h39.1v14.8h-39.1v46.2h-17.5V33.8c0-3,2.4-5.5,5.5-5.5h55s0,14.8,0,14.7Z"/>
  <path class="st1" d="M263.3,140.5h16.8V60.2h-11.4c-3,0-5.4,2.4-5.4,5.4v74.9h0Z"/>
  <path class="st1" d="M526.3,57.2c5.5,0,10.6.9,15.5,2.8s9.1,4.5,12.8,8.1c3.7,3.5,6.6,7.8,8.8,12.9,2.2,5.1,3.2,10.9,3.2,17.4s-1.1,12.7-3.2,17.9c-2.2,5.3-5.1,9.7-8.8,13.3-3.7,3.6-8.1,6.3-13.1,8.2-5,1.9-10.4,2.8-16,2.8s-10.7-.9-15.6-2.8-9.2-4.5-12.9-8.1c-3.7-3.5-6.6-7.8-8.8-12.9-2.2-5.1-3.2-10.9-3.2-17.4s1.1-12.6,3.3-17.9c2.2-5.2,5.1-9.7,8.9-13.3,3.7-3.6,8.1-6.4,13.2-8.2,5.1-1.9,10.4-2.8,16.1-2.8h0ZM525.4,71.3c-3,0-6,.6-8.8,1.8-2.8,1.2-5.3,3-7.5,5.4-2.2,2.4-3.9,5.2-5.2,8.6-1.3,3.4-1.9,7.2-1.9,11.4s.7,8.6,2,12.1,3.1,6.4,5.2,8.7c2.2,2.3,4.7,4.1,7.7,5.2,2.9,1.2,6,1.7,9.2,1.7s6-.6,8.8-1.8,5.3-3,7.5-5.3c2.2-2.3,3.9-5.2,5.2-8.5,1.3-3.4,1.9-7.2,1.9-11.4s-.6-8.6-1.9-12.1-3-6.4-5.2-8.7c-2.2-2.3-4.7-4.1-7.7-5.3s-6-1.8-9.3-1.8h0Z"/>
  <path class="st1" d="M369,68.2c-3-3.4-6.5-6-10.6-7.8-4.1-1.8-8.7-2.8-13.7-2.8s-8.2.7-12,2c-3.8,1.3-7.4,3.3-10.6,6.1V19.2h-.5c0,0-16.2,10.2-16.2,10.2v98.7c5.6-.7,11.2-1.3,16.8-2l-16.8,10.5v2.8c1.7.2,3.5.3,5.3.4,1.9.1,3.8.2,5.7.4s3.9.2,5.9.2c2,0,3.9,0,5.7,0,8.2,0,15.4-1.1,21.7-3.2s11.5-5.1,15.8-9c4.3-3.9,7.5-8.5,9.6-14,2.2-5.4,3.2-11.5,3.2-18.2s-.8-11.1-2.4-15.8c-1.6-4.8-3.9-8.8-6.8-12.2h0ZM359.3,108.8c-1.3,3.6-3.2,6.7-5.8,9.2-2.6,2.6-5.9,4.5-9.8,6s-8.7,2.1-14.2,2.1-2.4,0-3.6,0-2.5,0-3.8,0v-45.5c2.4-2.8,5.1-5.1,8.3-6.7,3.2-1.6,6.6-2.4,10.2-2.4s6.1.6,8.6,1.8c2.5,1.2,4.7,2.9,6.4,5.2,1.8,2.2,3.1,4.9,4.1,8.1,1,3.1,1.4,6.6,1.4,10.4s-.6,8.3-1.9,11.9h0Z"/>
  <path class="st1" d="M465.6,80.3c-1.6-4.8-3.9-8.8-6.8-12.2-3-3.4-6.5-6-10.6-7.8-4.1-1.8-8.7-2.8-13.7-2.8s-8.2.7-12,2c-3.8,1.3-7.4,3.3-10.6,6.1V19.2h-1c0,.1-15.8,9.9-15.8,9.9v98.3c5.6-.7,11.2-1.3,16.8-2v-44.9c2.4-2.8,5.1-5.1,8.3-6.7,3.2-1.6,6.6-2.4,10.2-2.4s6.1.6,8.6,1.8c2.5,1.2,4.7,2.9,6.4,5.2,1.8,2.2,3.1,4.9,4.1,8.1,1,3.1,1.4,6.6,1.4,10.4s-.6,8.3-1.9,11.9-3.2,6.7-5.8,9.2c-2.6,2.6-5.9,4.5-9.8,6s-8.7,2.1-14.2,2.1-2.4,0-3.6,0-2.5,0-3.8,0v-.2l-16.8,10.5v3c1.7.2,3.5.3,5.3.4,1.9.1,3.8.2,5.7.4s3.9.2,5.9.2c2,0,3.9,0,5.7,0,8.2,0,15.4-1.1,21.7-3.2s11.5-5.1,15.8-9c4.3-3.9,7.5-8.5,9.6-14,2.2-5.4,3.2-11.5,3.2-18.2s-.8-11.1-2.4-15.8h0Z"/>
  <path class="st1" d="M429.7,140c-.3,0-.6,0-.9.1v.4l.9-.5h0Z"/>
</svg>