<svg viewBox="0 0 24 24" fill="currentColor" xmlns="http://www.w3.org/2000/svg"><path d="M23.748 9.784c-.13-.433-.32-.792-.573-1.077a2.574 2.574 0 0 0-.839-.633 2.35 2.35 0 0 0-.48-.163 5.48 5.48 0 0 0-.413-.07 3.177 3.177 0 0 0-.225-.02c.007-.27-.012-.543-.059-.816a4.245 4.245 0 0 0-.46-1.376 4.42 4.42 0 0 0-.874-1.12 4.634 4.634 0 0 0-1.231-.784 5.107 5.107 0 0 0-1.52-.392 6.327 6.327 0 0 0-1.737.047 7.47 7.47 0 0 0-1.874.601 9.07 9.07 0 0 0-1.836 1.171 10.705 10.705 0 0 0-1.655 1.737c-.116-.04-.233-.077-.35-.109a6.155 6.155 0 0 0-1.768-.176 5.718 5.718 0 0 0-1.697.347 5.12 5.12 0 0 0-1.476.87 4.576 4.576 0 0 0-1.024 1.312 4.11 4.11 0 0 0-.406 1.664 4.286 4.286 0 0 0 .264 1.697c.032.088.068.175.107.261a4.133 4.133 0 0 0-.584.436 3.888 3.888 0 0 0-.74.944 3.593 3.593 0 0 0-.362 1.228 3.64 3.64 0 0 0 .127 1.286c.13.427.339.8.619 1.116.28.315.626.567 1.03.748a3.677 3.677 0 0 0 1.38.27 5.14 5.14 0 0 0 .72-.052 6.28 6.28 0 0 0 .797-.18c.271-.08.546-.179.822-.296.136.192.279.376.43.55.462.528 1.003.96 1.618 1.29a5.868 5.868 0 0 0 2.023.587 6.844 6.844 0 0 0 2.235-.13 7.285 7.285 0 0 0 2.163-.853 8.034 8.034 0 0 0 1.777-1.48 8.726 8.726 0 0 0 1.225-1.968c.12.003.24.003.36 0a5.3 5.3 0 0 0 1.507-.283 4.693 4.693 0 0 0 1.278-.701 3.933 3.933 0 0 0 .897-1.054 3.59 3.59 0 0 0 .415-1.325 3.753 3.753 0 0 0-.124-1.404zm-12.09 5.68a2.37 2.37 0 0 1-.697-.43 2.066 2.066 0 0 1-.45-.636 1.867 1.867 0 0 1-.15-.756c0-.262.05-.515.15-.756.1-.24.247-.455.436-.64.19-.185.413-.33.665-.434.252-.103.524-.156.812-.156.287 0 .56.053.812.156.252.103.476.249.665.434.19.185.335.4.436.64.1.24.15.494.15.756s-.05.515-.15.756a2.066 2.066 0 0 1-.45.636 2.37 2.37 0 0 1-.697.43 2.588 2.588 0 0 1-.882.147 2.588 2.588 0 0 1-.65-.147zm6.49.612a5.24 5.24 0 0 1-1.47.612 5.617 5.617 0 0 1-1.6.163 5.085 5.085 0 0 1-1.496-.31 4.68 4.68 0 0 1-1.255-.713 4.13 4.13 0 0 1-.919-1.057c.305-.081.594-.197.864-.344.271-.148.52-.326.743-.533.223-.207.42-.44.585-.697a3.41 3.41 0 0 0 .373-.867c.28.157.579.28.895.363.316.083.644.12.98.11a3.627 3.627 0 0 0 1.83-.549 3.44 3.44 0 0 0 1.228-1.37c.048.2.082.403.1.608.02.205.022.41.007.614a4.328 4.328 0 0 1-.379 1.405 4.616 4.616 0 0 1-.486.865c-.2.268-.426.515-.68.73l-.3.77z"/></svg>
