<?xml version="1.0" encoding="UTF-8"?>
<svg id="Layer_2" data-name="Layer 2" xmlns="http://www.w3.org/2000/svg" xmlns:xlink="http://www.w3.org/1999/xlink" viewBox="0 0 432 104.6">
  <defs>
    <style>
      .cls-1 {
        fill: url(#linear-gradient-5);
      }

      .cls-2 {
        fill: url(#linear-gradient-6);
      }

      .cls-3 {
        fill: url(#linear-gradient-4);
      }

      .cls-4 {
        fill: url(#linear-gradient-3);
      }

      .cls-5 {
        fill: url(#linear-gradient-2);
      }

      .cls-6 {
        fill: url(#linear-gradient);
      }
    </style>
    <linearGradient id="linear-gradient" x1="0" y1="71.75" x2="432" y2="71.75" gradientTransform="translate(0 125.8) scale(1 -1)" gradientUnits="userSpaceOnUse">
      <stop offset="0" stop-color="#2469e2"/>
      <stop offset="1" stop-color="#11b38d"/>
    </linearGradient>
    <linearGradient id="linear-gradient-2" y1="58.35" x2="432" y2="58.35" xlink:href="#linear-gradient"/>
    <linearGradient id="linear-gradient-3" y1="58.35" x2="432" y2="58.35" xlink:href="#linear-gradient"/>
    <linearGradient id="linear-gradient-4" y1="58.35" x2="432" y2="58.35" xlink:href="#linear-gradient"/>
    <linearGradient id="linear-gradient-5" y1="74.2" x2="432" y2="74.2" xlink:href="#linear-gradient"/>
    <linearGradient id="linear-gradient-6" y1="58.35" x2="432" y2="58.35" xlink:href="#linear-gradient"/>
  </defs>
  <g id="Camada_1" data-name="Camada 1">
    <g>
      <path class="cls-6" d="M0,103.2V5h20.3l43.5,69.4h1.1c-.4-9.7-.6-18.1-.6-27.1V4.9h18.6v98.2h-20.4L19,33.7h-1c.4,9.8.6,18,.6,27.1v42.4H0Z"/>
      <path class="cls-5" d="M163.9,65.6c0,12.6,0,25,.7,37.6h-16.4l-1.5-12.2h-1.2c-4.4,9-12,13.6-23.1,13.6s-22.7-8.4-22.7-21.3,9.7-21.9,28.9-23l17.4-1v-2.7c0-8.6-6.4-12.2-13.8-12.2s-13.3,3.9-15.6,11.2l-16-4.3c2.5-13.5,14.5-21,31.6-21s31.8,9.7,31.8,25.7v9.7l-.1-.1ZM146,71l-13.1.8c-9.9.7-15.3,3.2-15.3,10s4,8.7,10.5,8.7c9.7,0,17.4-7.7,18-19.5h-.1Z"/>
      <path class="cls-4" d="M198.9,103.2l-24.4-71.5h19.3l16.3,54.6h1l16.2-54.6h18.9l-24.6,71.5h-22.7Z"/>
      <path class="cls-3" d="M274.7,103.2l-24.4-71.5h19.3l16.3,54.6h1l16.2-54.6h18.9l-24.6,71.5h-22.7,0Z"/>
      <path class="cls-1" d="M330.1,11.5c0-6.6,5.2-11.5,12-11.5s12,4.9,12,11.5-5.2,11.6-12,11.6-12-5-12-11.6ZM332.9,103.2V31.7h18.6v71.5h-18.6Z"/>
      <path class="cls-2" d="M431.3,65.6c0,12.6,0,25,.7,37.6h-16.4l-1.5-12.2h-1.2c-4.4,9-12,13.6-23.1,13.6s-22.7-8.4-22.7-21.3,9.7-21.9,28.9-23l17.4-1v-2.7c0-8.6-6.4-12.2-13.8-12.2s-13.3,3.9-15.6,11.2l-16-4.3c2.5-13.5,14.5-21,31.6-21s31.8,9.7,31.8,25.7v9.7l-.1-.1ZM413.4,71l-13.1.8c-9.9.7-15.3,3.2-15.3,10s4,8.7,10.5,8.7c9.7,0,17.4-7.7,18-19.5h-.1Z"/>
    </g>
  </g>
</svg>
